# xmcd
#
# Track frame offsets:
#	150
#	13034
#	26165
#	42814
#	55586
#	69690
#	83787
#	97780
#	111311
#	124017
#	139157
#	152760
#	167386
#	179707
#	193903
#	205457
#	220364
#	233046
#	244313
#	257967
#	271155
#
# Disc length: 3798 seconds
#
# Revision: 0
# Processed by: cddbd v1.5.2PL0 Copyright (c) Steve Scherf et al.
# Submitted via: audiograbber 1.83.01
#
DISCID=310ed415
DTITLE=Various Artist - Calendar Card Book CD
DYEAR=1929
DGENRE=Blues
TTITLE0=Memphis Jug Band - On The Road Again
TTITLE1=Blind Willie McTell - Dark Night Blues
TTITLE2=Cannon's Jug Stompers - Minglewood Blues
TTITLE3=Skip James  - Hard Time Killin' Floor Blues
TTITLE4=Jaybird Coleman - I'm Gonna Cross the River Of Jordan
TTITLE5=Charley Patton - High Water Everywhere
TTITLE6=Frank Stokes - I Got Mine
TTITLE7="Dock" Boggs  - Sugar Baby
TTITLE8=9. Shelor Family  - Big Bend Gal
TTITLE9=Hayes Shepherd - The Peddler And His Wife
TTITLE10=Crockett's Kentucky Mountaineers - Little Rabbit
TTITLE11=Burnett and Rutherford - All Night Long Blues
TTITLE12=East Texas Serenaders - Mineola Rag
TTITLE13=Weems String Band - Greenback Dollar
TTITLE14=Bennie Moten's Kansas City Orchestra - Kater St. Rag
TTITLE15="King" Oliver's Creole Jazz Band  - Sobbin' Blues
TTITLE16=Parham-Pickett Apollo Syncopators - Mojo Strut
TTITLE17=Frankie Franko and His Louisianians - Somebody Stole My Gal
TTITLE18=Clarence Williams' Blue Five - Wild Cat Blues
TTITLE19="Jelly Roll" Morton's Red Hot Peppers  - Kansas City Stomps
TTITLE20=Jimmy Noone - From Monday On
EXTD=All of this music appears on various Yazoo Records CDs. These original rec
EXTD=ordings are from 1927-1931
EXTT0=
EXTT1=
EXTT2=
EXTT3=
EXTT4=
EXTT5=
EXTT6=
EXTT7=
EXTT8=
EXTT9=
EXTT10=
EXTT11=
EXTT12=
EXTT13=
EXTT14=
EXTT15=
EXTT16=
EXTT17=
EXTT18=
EXTT19=
EXTT20=
PLAYORDER=
